<svg height='100px' width='100px' xmlns="http://www.w3.org/2000/svg" xmlns:xlink="http://www.w3.org/1999/xlink" version="1.1" x="0px" y="0px" viewBox="0 0 128 128" style="enable-background:new 0 0 128 128;" xml:space="preserve">
  <title>continuous integration</title>
  <style>
   path {
     fill: #171717;
   }
   circle {
     fill: #171717;
   }

   @media (prefers-color-scheme: dark) {
     path {
    fill: #b5b5b5;
     }
     circle {
       fill: #b5b5b5;
     }
   }
  </style>
  <g>
 <path d="M51.014,35.722h24.934v-18.21H51.014V35.722z M66.906,23.204l0.688-2.035l5.302,4.293v1.41l-5.302,4.294l-0.688-2.035 l3.363-2.964L66.906,23.204z M64.275,20.645h2.276L62.706,31.69h-2.298L64.275,20.645z M54.065,25.463l5.303-4.293l0.686,2.036 l-3.363,2.963l3.363,2.963l-0.686,2.037l-5.303-4.295V25.463z"></path>
 <path d="M83.091,86.851l23.281,8.93l6.516-17.003l-23.281-8.93L83.091,86.851z M105.173,80.092l1.867,0.715l-3.359,8.767 l-1.867-0.715L105.173,80.092z M97.981,80.039l1.867,0.715l-2.455,6.408l-1.867-0.715L97.981,80.039z M92.658,80.701l-1.552,4.049 l-1.867-0.715l1.552-4.049L92.658,80.701z"></path>
 <path d="M64,3C30.364,3,3,30.364,3,64s27.364,61,61,61s61-27.364,61-61S97.636,3,64,3z M102.483,63.526l-2,0.049 c-0.031-1.287-0.127-2.578-0.286-3.839l1.984-0.25C102.349,60.813,102.45,62.173,102.483,63.526z M102.379,67.577 c-0.052,0.685-0.121,1.364-0.207,2.04l-1.984-0.254c0.082-0.641,0.147-1.287,0.197-1.938L102.379,67.577z M101.475,55.495 l-1.949,0.449c-0.286-1.242-0.641-2.488-1.054-3.702l1.893-0.645C100.8,52.876,101.173,54.188,101.475,55.495z M96.984,44.239 c0.684,1.16,1.315,2.369,1.878,3.593l-1.818,0.834c-0.533-1.162-1.133-2.31-1.782-3.411L96.984,44.239z M92.193,37.718 c0.9,0.997,1.762,2.054,2.561,3.139l-1.611,1.186c-0.759-1.032-1.577-2.036-2.434-2.984L92.193,37.718z M86.193,32.288 c1.084,0.799,2.14,1.661,3.137,2.563l-1.342,1.482c-0.948-0.857-1.95-1.677-2.98-2.435L86.193,32.288z M81.015,29.055 c0.607,0.316,1.205,0.649,1.794,0.997l-1.016,1.723c-0.56-0.33-1.126-0.646-1.702-0.946L81.015,29.055z M44.059,29.052 l0.928,1.771c-0.577,0.302-1.146,0.618-1.704,0.947l-1.016-1.723C42.854,29.701,43.452,29.369,44.059,29.052z M38.947,32.235 l1.182,1.613c-1.01,0.74-1.996,1.541-2.932,2.38l-1.336-1.488C36.846,33.856,37.884,33.014,38.947,32.235z M33.038,37.537 l1.477,1.35c-0.847,0.926-1.656,1.904-2.407,2.909l-1.602-1.197C31.296,39.542,32.147,38.512,33.038,37.537z M28.288,43.897 l1.713,1.033c-0.65,1.078-1.251,2.197-1.785,3.324l-1.807-0.855C26.972,46.212,27.604,45.033,28.288,43.897z M24.89,51.07 l1.883,0.672c-0.418,1.174-0.785,2.39-1.089,3.614l-1.941-0.482C24.062,53.586,24.448,52.307,24.89,51.07z M22.981,58.776 l1.98,0.283c-0.178,1.239-0.296,2.504-0.352,3.76l-1.998-0.088C22.671,61.41,22.795,60.079,22.981,58.776z M24.881,68.528 l-1.984,0.252l-0.015-0.117c-0.095-0.745-0.168-1.326-0.219-1.907l1.992-0.176c0.049,0.559,0.12,1.116,0.211,1.832L24.881,68.528z  M39.141,96.925c-0.555-0.401-1.099-0.816-1.631-1.245l1.256-1.557c0.505,0.407,1.021,0.801,1.547,1.181L39.141,96.925z  M45.833,100.84c-1.175-0.542-2.333-1.146-3.442-1.795l1.01-1.727c1.054,0.617,2.153,1.19,3.271,1.705L45.833,100.84z  M46.153,88.712l-25.125,9.354c-0.112,0.042-0.23,0.063-0.349,0.063c-0.145,0-0.289-0.031-0.423-0.094 c-0.242-0.113-0.43-0.318-0.52-0.571l-6.858-19.275c-0.183-0.515,0.081-1.081,0.594-1.272l25.125-9.354 c0.25-0.093,0.528-0.082,0.771,0.031c0.242,0.113,0.43,0.318,0.52,0.571l6.858,19.275C46.93,87.954,46.666,88.521,46.153,88.712z  M53.158,103.381c-1.258-0.303-2.512-0.671-3.726-1.092l0.656-1.889c1.152,0.399,2.343,0.748,3.538,1.037L53.158,103.381z  M60.839,104.452c-1.291-0.054-2.592-0.171-3.866-0.349l0.277-1.98c1.21,0.169,2.445,0.28,3.671,0.331L60.839,104.452z  M64.718,104.431l-0.107-1.998c1.226-0.065,2.46-0.192,3.669-0.376l0.301,1.977C67.308,104.228,66.008,104.361,64.718,104.431z  M72.387,103.263l-0.492-1.938c1.185-0.302,2.37-0.665,3.525-1.081l0.678,1.881C74.883,102.563,73.634,102.946,72.387,103.263z  M77.947,36.722c0,0.553-0.447,1-1,1H50.014c-0.553,0-1-0.447-1-1v-20.21c0-0.553,0.447-1,1-1h26.934c0.553,0,1,0.447,1,1V36.722z  M79.681,100.631l-0.859-1.807c1.107-0.526,2.2-1.113,3.249-1.744l1.031,1.713C81.997,99.458,80.846,100.076,79.681,100.631z  M86.34,96.623l-1.193-1.605c0.521-0.388,1.033-0.788,1.533-1.201l1.273,1.543C87.426,95.794,86.889,96.216,86.34,96.623z  M107.882,97.43c-0.095,0.248-0.284,0.448-0.526,0.556c-0.13,0.058-0.269,0.087-0.407,0.087c-0.121,0-0.242-0.022-0.358-0.066 L81.44,88.36c-0.516-0.197-0.773-0.775-0.575-1.291l7.231-18.871c0.095-0.248,0.284-0.448,0.526-0.556 c0.244-0.107,0.518-0.113,0.766-0.021l25.148,9.646c0.516,0.197,0.773,0.775,0.575,1.291L107.882,97.43z"></path>
 <path d="M15.094,78.447l6.188,17.391l23.251-8.657L38.345,69.79L15.094,78.447z M27.039,90.097 c-0.473,0.172-0.855,0.259-1.207,0.281c-0.402,0.024-0.765-0.039-1.08-0.186c-0.313-0.144-0.586-0.371-0.801-0.669 c-0.181-0.251-0.329-0.538-0.453-0.878l-0.781-1.973l-0.723,0.263l-0.424-0.715l-0.522-1.434l0.723-0.263 c0.066-0.024,0.089-0.043,0.089-0.043l0.021-0.278l-0.652-1.793c-0.122-0.336-0.196-0.663-0.218-0.966 c-0.027-0.373,0.038-0.72,0.194-1.037c0.142-0.297,0.376-0.575,0.692-0.814c0.283-0.217,0.634-0.4,1.072-0.56l0.723-0.263 l0.826,2.149l-0.723,0.263c-0.184,0.067-0.278,0.124-0.321,0.155c0.014,0.024,0.03,0.108,0.077,0.238l0.558,1.533 c0.2,0.551,0.278,1.016,0.237,1.418c-0.01,0.103-0.028,0.203-0.051,0.298c0.079,0.058,0.156,0.123,0.228,0.194 c0.292,0.281,0.531,0.687,0.732,1.239l0.559,1.535c0.049,0.134,0.092,0.208,0.115,0.244c0.028-0.027,0.134-0.032,0.323-0.101 l0.723-0.263l0.787,2.163L27.039,90.097z M29.102,86.911c-0.155,0.38-0.456,0.661-0.869,0.812c-0.411,0.15-0.821,0.13-1.185-0.061 c-0.338-0.177-0.585-0.46-0.715-0.816c-0.128-0.353-0.122-0.725,0.019-1.077c0.112-0.271,0.351-0.625,0.872-0.815 c0.524-0.191,0.935-0.072,1.187,0.061c0.34,0.181,0.584,0.462,0.712,0.815C29.254,86.185,29.246,86.56,29.102,86.911z  M32.074,85.829c-0.155,0.38-0.456,0.661-0.869,0.812c-0.413,0.15-0.824,0.129-1.186-0.063c-0.335-0.174-0.583-0.456-0.713-0.815 c-0.129-0.355-0.122-0.728,0.022-1.08c0.109-0.266,0.347-0.621,0.87-0.812c0.524-0.191,0.935-0.072,1.187,0.061 c0.34,0.181,0.584,0.462,0.712,0.815C32.225,85.103,32.218,85.478,32.074,85.829z M34.176,85.559 c-0.413,0.15-0.825,0.129-1.187-0.063c-0.336-0.176-0.582-0.458-0.712-0.815c-0.128-0.353-0.122-0.725,0.019-1.077 c0.11-0.268,0.348-0.624,0.872-0.815c0.521-0.19,0.932-0.073,1.184,0.06c0.341,0.182,0.585,0.464,0.714,0.817 c0.13,0.357,0.123,0.731-0.021,1.082C34.888,85.13,34.587,85.409,34.176,85.559z M38.395,83.22 c0.124,0.34,0.194,0.655,0.217,0.964c0.027,0.365-0.035,0.711-0.186,1.032c-0.147,0.311-0.383,0.592-0.705,0.832 c-0.284,0.209-0.632,0.389-1.066,0.547l-0.723,0.263l-0.826-2.149l0.723-0.263c0.183-0.067,0.278-0.124,0.321-0.155 c-0.014-0.024-0.029-0.106-0.076-0.237l-0.559-1.535c-0.201-0.553-0.279-1.018-0.236-1.418c0.01-0.101,0.027-0.2,0.05-0.297 c-0.079-0.058-0.156-0.123-0.228-0.194c-0.292-0.283-0.531-0.689-0.731-1.24l-0.558-1.534c-0.049-0.134-0.092-0.21-0.117-0.245 c-0.018,0.028-0.135,0.032-0.323,0.101l-0.723,0.263l-0.787-2.163l0.723-0.263c0.477-0.174,0.864-0.259,1.22-0.275 c0.395-0.019,0.751,0.044,1.058,0.182c0.319,0.142,0.592,0.366,0.809,0.666c0.179,0.248,0.332,0.546,0.454,0.882l0.652,1.793 l-0.255,0.844l0.377-0.668l0.723-0.263l0.43,0.717l0.522,1.434l-0.723,0.263c-0.061,0.022-0.082,0.041-0.082,0.041l-0.027,0.283 L38.395,83.22z"></path>
  </g>
</svg>
