<svg height='100px' width='100px' xmlns="http://www.w3.org/2000/svg" viewBox="0 0 64 64" x="0px" y="0px">
  <title>milestone</title>
  <style>
    path {
      fill: #171717;
    }
    @media (prefers-color-scheme: dark) {
      path {
        fill: #b5b5b5;
      }
    }
  </style>
  <g>
    <path d="M29,37H15a8,8,0,1,1,0-16h2a1,1,0,0,1,0,2H15a6,6,0,0,0-6,6,6,6,0,0,0,6,6H29a1,1,0,0,1,0,2Z"></path>
    <path d="M41,51H29a1,1,0,0,1,0-2H41a1,1,0,0,1,0,2Z"></path><path d="M49,51H47a1,1,0,0,1,0-2h2a6,6,0,0,0,6-6,6,6,0,0,0-6-6H35a1,1,0,0,1,0-2H49a8,8,0,0,1,0,16Z"></path>
    <path d="M50,23H23a1,1,0,0,1,0-2H50a1,1,0,0,1,0,2Z"></path>
    <path d="M21,57H11a4,4,0,0,1-4-4V47a4,4,0,0,1,4-4H21a4,4,0,0,1,4,4v6A4,4,0,0,1,21,57ZM11,45a2,2,0,0,0-2,2v6a2,2,0,0,0,2,2H21a2,2,0,0,0,2-2V47a2,2,0,0,0-2-2Z"></path>
    <path d="M21,51H11a4,4,0,0,1,0-8H21a4,4,0,0,1,0,8ZM11,45a2,2,0,0,0,0,4H21a2,2,0,0,0,0-4Z"></path>
    <path d="M19,45H13a1,1,0,0,1-1-1V42a2,2,0,0,1,2-2h4a2,2,0,0,1,2,2v2A1,1,0,0,1,19,45Zm-5-2h4V42H14Z"></path>
    <path d="M16,52a1,1,0,0,1-1-1V49a1,1,0,0,1,2,0v2A1,1,0,0,1,16,52Z"></path>
    <path d="M44,54a4,4,0,1,1,4-4A4,4,0,0,1,44,54Zm0-6a2,2,0,1,0,2,2A2,2,0,0,0,44,48Z"></path>
    <path d="M32,40a4,4,0,1,1,4-4A4,4,0,0,1,32,40Zm0-6a2,2,0,1,0,2,2A2,2,0,0,0,32,34Z"></path>
    <path d="M20,26a4,4,0,1,1,4-4A4,4,0,0,1,20,26Zm0-6a2,2,0,1,0,2,2A2,2,0,0,0,20,20Z"></path>
    <path d="M53,26a4,4,0,1,1,4-4A4,4,0,0,1,53,26Zm0-6a2,2,0,1,0,2,2A2,2,0,0,0,53,20Z"></path><path d="M53,20a1,1,0,0,1-1-1V8a1,1,0,0,1,2,0V19A1,1,0,0,1,53,20Z"></path>
    <path d="M53,16a1,1,0,0,1-.39-.08l-7-3a1,1,0,0,1-.61-.86,1,1,0,0,1,.5-.93l7-4a1,1,0,0,1,1,0A1,1,0,0,1,54,8v7a1,1,0,0,1-.45.83A1,1,0,0,1,53,16Zm-4.76-4.13L52,13.48V9.72Z"></path>
  </g>
</svg>
