<svg height='100px' width='100px' xmlns="http://www.w3.org/2000/svg" xmlns:xlink="http://www.w3.org/1999/xlink" version="1.1" x="0px" y="0px" viewBox="0 0 64 64" style="enable-background:new 0 0 64 64;" xml:space="preserve">
  <title>Documentation</title>
  <style>
    path {
      fill: #171717;
    }
    rect {
      fill: #171717;
    }
    @media (prefers-color-scheme: dark) {
      path {
        fill: #b5b5b5;
      }
      rect {
        fill: #b5b5b5;
      }
    }
  </style>
  <g>
    <rect x="53" y="55" width="2" height="2"></rect>
    <rect x="57" y="55" width="2" height="2"></rect>
    <path d="M60,31h-1V13c0-1.103-0.897-2-2-2h-4V7c0-3.309-2.691-6-6-6H15c-3.309,0-6,2.691-6,6v12h10v4h-5v2.055   c0,0.778-0.464,1.473-1.222,1.786c-0.725,0.303-1.55,0.143-2.102-0.409L9.22,24.976L4.976,29.22l1.456,1.456   c0.551,0.551,0.711,1.376,0.393,2.141C6.527,33.535,5.833,34,5.055,34H3v6h2.055c0.778,0,1.473,0.465,1.786,1.222   c0.303,0.726,0.142,1.551-0.409,2.103L4.976,44.78L9.195,49H8c-3.86,0-7,3.141-7,7s3.14,7,7,7h28.2l4.8-2H60c1.654,0,3-1.346,3-3   V34C63,32.346,61.654,31,60,31z M61,34v5H25v-9c0-0.551,0.449-1,1-1h16.764c0.381,0,0.724,0.212,0.894,0.553L45.382,33H60   C60.551,33,61,33.448,61,34z M46.691,55.538C46.879,55.616,47,55.798,47,56s-0.121,0.384-0.308,0.462L44,57.584v-3.167   L46.691,55.538z M42,58.417L37,60.5v-9l5,2.083V58.417z M13,51v10h-2V51H13z M15,57h20v4H15V57z M35,55H15v-4h20V55z M19,34.78   c-0.532-0.48-1.229-0.78-2-0.78c-1.654,0-3,1.346-3,3s1.346,3,3,3c0.771,0,1.468-0.301,2-0.78v2.357C18.372,41.852,17.692,42,17,42   c-2.757,0-5-2.243-5-5s2.243-5,5-5c0.692,0,1.372,0.148,2,0.423V34.78z M18,37c0,0.552-0.449,1-1,1s-1-0.448-1-1s0.449-1,1-1   S18,36.448,18,37z M57,31H46.618l-1.171-2.342C44.936,27.635,43.907,27,42.764,27H29V13h28V31z M51,7v4H29c-1.103,0-2,0.897-2,2v14   h-1c-1.654,0-3,1.346-3,3v19h-2V7c0-1.538-0.586-2.937-1.54-4H47C49.206,3,51,4.794,51,7z M11,17V7c0-2.206,1.794-4,4-4   s4,1.794,4,4v10H11z M8.673,40.42C8.066,38.95,6.646,38,5.055,38H5v-2h0.055c1.591,0,3.011-0.95,3.631-2.452   c0.616-1.477,0.287-3.159-0.84-4.286L7.804,29.22l1.416-1.416l0.042,0.042c1.127,1.127,2.809,1.457,4.318,0.827   c1.47-0.606,2.42-2.027,2.42-3.618V25h3v5.302C18.353,30.109,17.681,30,17,30c-3.86,0-7,3.141-7,7s3.14,7,7,7   c0.681,0,1.353-0.109,2-0.302V49h-3v-0.055c0-1.591-0.95-3.011-2.452-3.632c-1.479-0.616-3.161-0.286-4.287,0.841L9.22,46.196   L7.804,44.78l0.042-0.042C8.972,43.611,9.302,41.929,8.673,40.42z M10.676,47.568c0.55-0.552,1.374-0.713,2.14-0.394   C13.535,47.473,14,48.167,14,48.945V49H9.244L10.676,47.568z M3,56c0-2.757,2.243-5,5-5h1v10H8C5.243,61,3,58.757,3,56z M60,59 H45.801l1.662-0.692C48.396,57.917,49,57.012,49,56s-0.604-1.917-1.538-2.308L36.2,49H25v-8h36v17C61,58.552,60.551,59,60,59z"></path>
    <path d="M27,37h14v-6H27V37z M33,35v-2h2v2H33z M39,35h-2v-2h2V35z M29,33h2v2h-2V33z"></path>
    <path d="M55,15H43v10h12V15z M53,23h-8v-6h8V23z"></path>
    <rect x="31" y="15" width="6" height="2"></rect>
    <rect x="31" y="19" width="10" height="2"></rect>
    <rect x="39" y="15" width="2" height="2"></rect>
    <rect x="31" y="23" width="10" height="2"></rect>
  </g>
</svg>
