<svg height='100px' width='100px'  xmlns="http://www.w3.org/2000/svg" xmlns:xlink="http://www.w3.org/1999/xlink" version="1.1" x="0px" y="0px" viewBox="0 0 68 68" style="enable-background:new 0 0 68 68;" xml:space="preserve">
  <title>Workflow</title>
  <style>
    path {
      fill: #171717;
    }
    @media (prefers-color-scheme: dark) {
      path {
        fill: #b5b5b5;
      }
  </style>
  <g>
    <path d="M62.9,19.5h-1.1c-2.2,0-4.1,1.8-4.1,4.1v28.1c0,0,0,0.2,0,0.2l3.6,14.2c0.1,0.4,0.5,0.8,1,0.8 c0.5,0,0.9-0.3,1-0.8L67,51.9c0,0,0-0.2,0-0.2V23.6C67,21.3,65.2,19.5,62.9,19.5z M59.8,28.8H65v21.8h-5.2V28.8z M61.8,21.5h1.1 1.1,0,2.1,0.9,2.1,2.1v3.3h-5.2v-3.3C59.8,22.4,60.7,21.5,61.8,21.5z M62.4,61.8L60,52.7h4.7L62.4,61.8z"></path>
    <path d="M51.3,10.3h-8.8V7.9c0-0.6-0.4-1-1-1h-3.9V6.1c0-2.8-2.5-5.1-5.6-5.1h-8c-3.1,0-5.6,2.3-5.6,5.1v0.7h-3.8 c-0.6,0-1,0.4-1,1v2.4H4.9c-2.1,0-3.9,1.6-3.9,3.6v49.5c0,2,1.7,3.6,3.9,3.6h46.4c2.1,0,3.9-1.6,3.9-3.6V13.9 C55.2,11.9,53.5,10.3,51.3,10.3z M20.5,6.1c0-1.7,1.6-3.1,3.6-3.1h8c2,0,3.6,1.4,3.6,3.1v0.7H20.5V6.1z M40.6,8.9v6.5H15.7 c0-0.7,0-5.7,0-6.5C35.9,8.9,36.6,8.9,40.6,8.9z M53.2,63.4c0,0.9-0.9,1.6-1.9,1.6H4.9c-1,0-1.9-0.7-1.9-1.6V13.9 c0-0.9,0.9-1.6,1.9-1.6h8.8v4.1c0,0.6,0.4,1,1,1h26.9c0.6,0,1-0.4,1-1v-4.1h8.8c1,0,1.9,0.7,1.9,1.6V63.4z"></path>
    <path d="M46.9,49.5V39c0-0.6-0.4-1-1-1h-4v-2.9c0-0.6-0.4-1-1-1H29.1v-2.6c2.9-0.5,5.1-3,5.1-6c0-3.4-2.7-6.1-6.1-6.1 c-3.4,0-6.1,2.7-6.1,6.1c0,3,2.2,5.5,5.1,6v2.6H15.3c-0.6,0-1,0.4-1,1V38h-4c-0.6,0-1,0.4-1,1v10.5c-2.9,0.5-5.1,3-5.1,6 c0,3.4,2.7,6.1,6.1,6.1c3.4,0,6.1-2.7,6.1-6.1c0-3-2.2-5.5-5.1-6V40h3v2.9c0,0.6,0.4,1,1,1h11.8v4.8L21,54.8c-0.4,0.4-0.4,1,0,1.4 l6.4,6.4c0.2,0.2,0.5,0.3,0.7,0.3c0.3,0,0.5-0.1,0.7-0.3l6.4-6.4c0.2-0.2,0.3-0.4,0.3-0.7c0-0.3-0.1-0.5-0.3-0.7l-6.1-6.1v-4.9 h11.8c0.6,0,1-0.4,1-1V40h3v9.5c-2.9,0.5-5.1,3-5.1,6c0,3.4,2.7,6.1,6.1,6.1s6.1-2.7,6.1-6.1C52,52.5,49.8,50,46.9,49.5z M24,25.5 c0-2.3,1.8-4.1,4.1-4.1s4.1,1.8,4.1,4.1c0,2.3-1.8,4.1-4.1,4.1S24,27.7,24,25.5z M14.4,55.5c0,2.3-1.8,4.1-4.1,4.1 c-2.3,0-4.1-1.8-4.1-4.1c0-2.3,1.8-4.1,4.1-4.1C12.6,51.4,14.4,53.2,14.4,55.5z M28.1,60.5l-5-5l5-5l5,5L28.1,60.5z M16.3,41.8 v-5.7h23.6c0,1.3,0,2.7,0,5.7H16.3z M45.9,59.6c-2.3,0-4.1-1.8-4.1-4.1c0-2.3,1.8-4.1,4.1-4.1c2.3,0,4.1,1.8,4.1,4.1 C50,57.7,48.2,59.6,45.9,59.6z"></path>
  </g>
</svg>
