<svg height='100px' width='100px' xmlns="http://www.w3.org/2000/svg" data-name="Layer 1" viewBox="0 0 128 128" x="0px" y="0px">
  <title>Document Comparisons</title>
  <style>
    path {
      fill: #171717;
    }
    @media (prefers-color-scheme: dark) {
      path {
        fill: #b5b5b5;
      }
    }
  </style>
  <g>
    <path d="M64,14a2.00008,2.00008,0,0,0-2,2v1a2,2,0,0,0,4,0V16A2.0001,2.0001,0,0,0,64,14Z"></path>
    <path d="M64,61.041a2.00008,2.00008,0,0,0-2,2V64.96a2,2,0,0,0,4,0V63.041A2.0001,2.0001,0,0,0,64,61.041Z"></path>
    <path d="M64,51.4492a2.00008,2.00008,0,0,0-2,2v1.919a2,2,0,0,0,4,0v-1.919A2.0001,2.0001,0,0,0,64,51.4492Z"></path>
    <path d="M64,22.6738a2.00008,2.00008,0,0,0-2,2v1.918a2,2,0,1,0,4,0v-1.918A2.0001,2.0001,0,0,0,64,22.6738Z"></path>
    <path d="M64,41.8574a2.00008,2.00008,0,0,0-2,2v1.918a2,2,0,0,0,4,0v-1.918A2.0001,2.0001,0,0,0,64,41.8574Z"></path>
    <path d="M64,70.6328a2.00008,2.00008,0,0,0-2,2v1.919a2,2,0,1,0,4,0v-1.919A2.0001,2.0001,0,0,0,64,70.6328Z"></path>
    <path d="M64,89.8164a2.00008,2.00008,0,0,0-2,2v1.919a2,2,0,0,0,4,0v-1.919A2.0001,2.0001,0,0,0,64,89.8164Z"></path>
    <path d="M64,99.4082a2.00008,2.00008,0,0,0-2,2v1.9189a2,2,0,0,0,4,0v-1.9189A2.0001,2.0001,0,0,0,64,99.4082Z"></path>
    <path d="M64,80.2246a2.00008,2.00008,0,0,0-2,2v1.919a2,2,0,0,0,4,0v-1.919A2.0001,2.0001,0,0,0,64,80.2246Z"></path>
    <path d="M64,32.2656a2.00008,2.00008,0,0,0-2,2v1.918a2,2,0,0,0,4,0v-1.918A2.0001,2.0001,0,0,0,64,32.2656Z"></path>
    <path d="M64,109a2.00008,2.00008,0,0,0-2,2v1a2,2,0,0,0,4,0v-1A2.0001,2.0001,0,0,0,64,109Z"></path>
    <path d="M50,26H6a6.00475,6.00475,0,0,0-6,6V96a6.00475,6.00475,0,0,0,6,6H50a6.00475,6.00475,0,0,0,6-6V32A6.00475,6.00475,0,0,0,50,26ZM11,38H35a2,2,0,0,1,0,4H11a2,2,0,0,1,0-4ZM27,90H11a2,2,0,0,1,0-4H27a2,2,0,0,1,0,4Zm18-8H11a2,2,0,0,1,0-4H45a2,2,0,0,1,0,4Zm0-8H11a2,2,0,0,1,0-4H45a2,2,0,0,1,0,4ZM9,64a2.00588,2.00588,0,0,1,2-2H24a2,2,0,0,1,0,4H11A2.00588,2.00588,0,0,1,9,64Zm36-6H11a2,2,0,0,1,0-4H45a2,2,0,0,1,0,4Zm0-8H11a2,2,0,0,1,0-4H45a2,2,0,0,1,0,4Z"></path>
    <path d="M122,26H78a6.00475,6.00475,0,0,0-6,6V96a6.00475,6.00475,0,0,0,6,6h6.53A15.56132,15.56132,0,0,1,84,98a15.85637,15.85637,0,0,1,2.16-8H83a2,2,0,0,1,0-4h6.44A15.90964,15.90964,0,0,1,100,82H83a2,2,0,0,1,0-4h34a2,2,0,0,1,0,4H100a15.88375,15.88375,0,0,1,10.55,4H117a2,2,0,0,1,0,4h-3.16A15.85637,15.85637,0,0,1,116,98a15.56132,15.56132,0,0,1-.53,4H122a6.00475,6.00475,0,0,0,6-6V32A6.00475,6.00475,0,0,0,122,26Zm-5,48H83a2,2,0,0,1,0-4h34a2,2,0,0,1,0,4Zm0-8H83a2,2,0,0,1,0-4h34a2,2,0,0,1,0,4Zm0-8H83a2,2,0,0,1,0-4h34a2,2,0,0,1,0,4Zm0-8H83a2,2,0,0,1,0-4h34a2,2,0,0,1,0,4Zm0-8H83a2,2,0,0,1,0-4h34a2,2,0,0,1,0,4Z"></path>
    <path d="M100,86a12,12,0,1,0,12,12A12.00951,12.00951,0,0,0,100,86Zm4.11,12.16-4.5,3a2.01069,2.01069,0,0,1-2.66-.4l-1.5-1.84a2.00068,2.00068,0,1,1,3.1-2.53l.35.44,2.99-1.99a1.99692,1.99692,0,1,1,2.22,3.32Z"></path>
  </g>
</svg>
