<svg height='100px' width='100px' xmlns="http://www.w3.org/2000/svg" xmlns:xlink="http://www.w3.org/1999/xlink" version="1.1" x="0px" y="0px" viewBox="0 0 100 100" style="enable-background:new 0 0 100 100;" xml:space="preserve">
  <title>Government Documentation</title>
  <style>
    path {
      fill: #171717;
    }
    @media (prefers-color-scheme: dark) {
      path {
        fill: #b5b5b5;
      }
    }
  </style>
  <g>
    <path d="M56.1020508,71.609375h-1.7177734V57.8813477h1.7177734c0.4262695,0,0.8056641-0.2700195,0.9448242-0.6728516  c0.1396484-0.4033203,0.0083008-0.8500977-0.3271484-1.1132812L43.2900391,45.5410156  c-0.3623047-0.2851562-0.8730469-0.2851562-1.2353516,0L28.625,56.0952148  c-0.3354492,0.2631836-0.4667969,0.7099609-0.3271484,1.1132812c0.1391602,0.402832,0.5185547,0.6728516,0.9448242,0.6728516  h1.7255859V71.609375h-1.753418c-0.5522461,0-1,0.4477539-1,1s0.4477539,1,1,1h26.887207c0.5522461,0,1-0.4477539,1-1  S56.6542969,71.609375,56.1020508,71.609375z M52.3842773,71.609375h-5.1386719V57.8813477h5.1386719V71.609375z   M45.2456055,57.8813477V71.609375h-5.1386719V57.8813477H45.2456055z M42.6723633,47.5991211l10.5390625,8.2822266h-21.078125  L42.6723633,47.5991211z M32.9682617,57.8813477h5.1386719V71.609375h-5.1386719V57.8813477z"></path>
    <path d="M10.0317383,11v73.6665039c0,0.5522461,0.4477539,1,1,1H45.12677  c0.0548096,0.0180054,0.1026611,0.0491333,0.1618042,0.0576172l29.4545898,4.2451172  c0.2539062,0.0366211,0.5073242,0.0546875,0.7592773,0.0546875c1.1245117,0,2.2148438-0.3608398,3.1318359-1.0463867  c1.1225586-0.8398438,1.8505859-2.065918,2.050293-3.453125l8.9980469-62.4389648  c0.2001953-1.3867188-0.1518555-2.769043-0.9916992-3.8911133c-0.8393555-1.1225586-2.065918-1.8505859-3.453125-2.050293  L67.5177612,14.59021C67.1359253,12.0004272,64.9202881,10,62.2260742,10H11.0317383  C10.4794922,10,10.0317383,10.4477539,10.0317383,11z M87.0893555,20.3920898  c0.5195312,0.6948242,0.737793,1.5498047,0.6137695,2.4082031l-8.9980469,62.4389648  c-0.2553711,1.7724609-1.9047852,3.0058594-3.6767578,2.7504883l-16.119751-2.3232422h3.3175049  c2.9614105,0,5.3706055-2.4091797,5.3706055-5.3706055V47.9595337l8.6650391,1.2489624  c0.0473633,0.0068359,0.0952148,0.0102539,0.1425781,0.0102539c0.2148438,0,0.425293-0.0693359,0.5991211-0.1992188  c0.2124023-0.1586914,0.3530273-0.3955078,0.390625-0.6582031l2.3125-16.0463867  c0.0380859-0.262207-0.0302734-0.5292969-0.1889648-0.7416992s-0.3955078-0.3530273-0.6582031-0.390625l-11.2626953-1.6229858  v-12.937439l17.355957,2.5013428C85.8110352,19.2470703,86.5698242,19.6977539,87.0893555,20.3920898z M67.5966797,42.3025513  l2.1977539,0.3165894c0.0483398,0.0068359,0.0961914,0.0102539,0.144043,0.0102539  c0.4887695,0,0.9165039-0.359375,0.9882812-0.8574219c0.0786133-0.546875-0.300293-1.0537109-0.847168-1.1323242  l-2.4829102-0.357666v-3.0447998l2.9125977,0.4200439c0.0483398,0.0068359,0.0961914,0.0102539,0.144043,0.0102539  c0.4887695,0,0.9165039-0.3588867,0.9882812-0.8574219c0.0786133-0.5463867-0.300293-1.0537109-0.847168-1.1323242  l-3.1977539-0.4611816v-3.6363525l9.987793,1.4393311l-2.0273438,14.0668945l-7.9604492-1.1474609V42.3025513z   M65.5966797,15.3706055v64.925293c0,1.8583984-1.512207,3.3706055-3.3706055,3.3706055H19.390625V12h42.8354492  C64.0844727,12,65.5966797,13.512207,65.5966797,15.3706055z M12.0317383,12h5.3588867v71.6665039h-5.3588867V12z"></path>
    <path d="M28.0390625,39.9223633H56.375c0.5522461,0,1-0.4477539,1-1V22.2373047c0-0.5522461-0.4477539-1-1-1H28.0390625  c-0.5522461,0-1,0.4477539-1,1v16.6850586C27.0390625,39.4746094,27.4868164,39.9223633,28.0390625,39.9223633z   M29.0390625,23.2373047H55.375v14.6850586H29.0390625V23.2373047z"></path>
    <path d="M49.1787109,27H35.2358398c-0.5522461,0-1,0.4477539-1,1s0.4477539,1,1,1h13.9428711c0.5522461,0,1-0.4477539,1-1  S49.730957,27,49.1787109,27z"></path>
    <path d="M49.1787109,32.159668H35.2358398c-0.5522461,0-1,0.4477539-1,1s0.4477539,1,1,1h13.9428711c0.5522461,0,1-0.4477539,1-1  S49.730957,32.159668,49.1787109,32.159668z"></path>
  </g>
</svg>
