<svg height='100px' width='100px' xmlns="http://www.w3.org/2000/svg" xmlns:xlink="http://www.w3.org/1999/xlink" version="1.1" x="0px" y="0px" viewBox="0 0 100 100" enable-background="new 0 0 100 100" xml:space="preserve">
  <title>Targets</title>
  <style>
    path {
      fill: #171717;
    }
    circle {
      fill: #171717;
    }

    @media (prefers-color-scheme: dark) {
      path {
        fill: #b5b5b5;
      }
      circle {
        fill: #b5b5b5;
      }
    }
  </style>
  <path d="M68.531,42.786l7.561-4.21c-1.311-2.172-2.838-4.25-4.594-6.197l-6.191,6.053C66.521,39.81,67.595,41.267,68.531,42.786z"></path><path d="M63.927,82.022C51.48,94.47,31.302,94.47,18.855,82.023c-12.446-12.446-12.446-32.625,0-45.071  c9.582-9.582,23.743-11.778,35.434-6.608l3.869-7.742c-14.932-6.784-33.133-4.042-45.414,8.239  c-15.821,15.822-15.821,41.472,0,57.293c15.821,15.82,41.472,15.821,57.294,0c12.456-12.456,15.098-31.004,7.939-46.052  l-7.647,4.041C75.77,57.901,73.635,72.314,63.927,82.022z"></path>
  <path d="M62.636,35.735l6.05-6.18c-2.181-1.991-4.525-3.699-6.989-5.128l-4.036,7.65C59.406,33.115,61.073,34.334,62.636,35.735z"></path>
  <path d="M52.086,70.184c-5.907,5.905-15.482,5.905-21.389,0c-5.907-5.907-5.907-15.482,0-21.39c4.35-4.35,10.687-5.485,16.086-3.427  l3.875-7.756c-8.65-3.66-19.023-1.979-26.073,5.071c-9.282,9.282-9.282,24.331,0,33.612c9.282,9.282,24.33,9.282,33.612,0 c7.131-7.132,8.761-17.658,4.935-26.367l-7.661,4.048C57.591,59.4,56.468,65.801,52.086,70.184z"></path>
  <path d="M53.295,50.175c0.199,0.254,0.391,0.512,0.571,0.776l7.569-4.215c-0.578-0.908-1.228-1.781-1.942-2.621L53.295,50.175z"></path>
  <path d="M56.944,41.549c-0.979-0.851-2.008-1.608-3.082-2.271l-4.04,7.658c0.367,0.247,0.727,0.508,1.076,0.791L56.944,41.549z"></path>
  <path d="M40.204,59.602c-0.054-0.093-0.095-0.188-0.121-0.289c-0.108-0.431,0.099-0.75,0.123-0.785l2.732-5.468 c-1.987-0.37-4.117,0.212-5.654,1.75c-2.479,2.478-2.479,6.497,0,8.975c2.479,2.479,6.497,2.479,8.976,0  c1.586-1.587,2.152-3.805,1.707-5.845l-5.572,2.943c-0.007,0.006-0.206,0.126-0.496,0.126c-0.242,0-0.56-0.087-0.876-0.409  c-0.11-0.079-0.219-0.17-0.329-0.279C40.455,60.079,40.296,59.84,40.204,59.602z"></path>
  <path d="M45.823,52.911l21.794-41.316l0.242,0.015c0,0,0.001,0,0.002,0c0.5,0,4.445-0.203,7.146-6.798 c-0.469-0.267-1.044-0.401-1.714-0.401c-1.81,0-3.679,0.974-3.697,0.983l-0.523,0.276l-0.026-0.591  c-0.001-0.038-0.187-3.64-2.543-4.817c-4.052,6.321-1.574,9.936-1.548,9.972l0.131,0.184l-0.102,0.202L41.786,57.035L45.823,52.911z"></path>
  <path d="M44.169,59.098l45.9-24.251l0.191,0.146c0.011,0.008,1.072,0.799,3.057,0.799c2.041,0,4.288-0.8,6.683-2.379 c-1.029-2.114-4.76-2.567-4.799-2.571l-0.588-0.068l0.312-0.503c0.02-0.032,1.9-3.111,0.62-5.411  c-6.912,2.933-6.906,7.316-6.905,7.36l0.005,0.225L48.664,54.703L44.169,59.098z"></path>
  <path d="M40.965,58.941c-0.037,0.033-0.104,0.097-0.107,0.211c-0.005,0.169,0.125,0.396,0.367,0.638 c0.243,0.242,0.475,0.375,0.653,0.375c0.126,0,0.197-0.067,0.204-0.075l38.853-37.986l0.226,0.085  c0.005,0.002,0.486,0.181,1.299,0.181c1.443,0,4.325-0.587,7.591-4.463c-1.566-1.71-5.315-1.105-5.331-1.102l-0.582,0.101  l0.156-0.57c0.01-0.036,0.938-3.523-0.944-5.365c-5.794,4.775-4.544,8.976-4.53,9.018l0.068,0.215l-0.158,0.161L40.965,58.941z"></path>
</svg>
