<svg height='100px' width='100px' xmlns="http://www.w3.org/2000/svg" data-name="Layer 1" viewBox="0 0 64 64" x="0px" y="0px">
  <title>Trainer with Students</title>
  <style>
    path {
      fill: #171717;
    }
    rect {
      fill: #171717;
    }
    @media (prefers-color-scheme: dark) {
      path {
        fill: #b5b5b5;
      }
      rect {
        fill: #b5b5b5;
      }
    }
  </style>
  <g>
    <path d="M62,1H2A1,1,0,0,0,1,2V6H3V3H61V37H27V32.62l10.34-5.17a3,3,0,0,0-2.28-5.52L25.84,25H25a4.92,4.92,0,0,0,1-3V14a3,3,0,0,0-.21-1.08A4,4,0,0,0,25,5H13.12A10.13,10.13,0,0,0,3,15.12a10.4,10.4,0,0,0,.1,1.37,4,4,0,0,0-.1,7V25a5,5,0,0,0,5,5,5.68,5.68,0,0,0,1-.11S9,30,9,30v7H3V30H1v8a1,1,0,0,0,1,1H9v3a1,1,0,0,0,1,1H26a1,1,0,0,0,1-1V39H62a1,1,0,0,0,1-1V2A1,1,0,0,0,62,1ZM9.37,27.65A3,3,0,0,1,8,28a3,3,0,0,1-3-3V22.82a1,1,0,0,0-.66-.94A2,2,0,0,1,3,20a2,2,0,0,1,.62-1.41,10.07,10.07,0,0,0,3.89,4.95l1.11-1.66A8.12,8.12,0,0,1,13.12,7H25a2,2,0,0,1,0,4H15a3,3,0,0,0-3,3v1.17a3,3,0,0,0,0,5.66v4.29A3.64,3.64,0,0,0,9.37,27.65Zm14.11-4A3,3,0,0,1,21,25H14V20a1,1,0,0,0-1-1,1,1,0,0,1,0-2,1,1,0,0,0,1-1V14a1,1,0,0,1,1-1h8a1,1,0,0,1,1,1v7.72A2,2,0,0,1,23,20H21A4,4,0,0,0,23.48,23.69Zm2.07,7.42A1,1,0,0,0,25,32v9H11V30c0-3,1.5-3,2-3H26a1.19,1.19,0,0,0,.32-.05l9.37-3.13a1,1,0,0,1,.9.14,1,1,0,0,1-.14,1.7Z"></path>
    <path d="M41,50a4,4,0,1,0-4,4A4,4,0,0,0,41,50Zm-6,0a2,2,0,1,1,2,2A2,2,0,0,1,35,50Z"></path>
    <path d="M29,58v4a1,1,0,0,0,1,1H44a1,1,0,0,0,1-1V58a3,3,0,0,0-3-3H32A3,3,0,0,0,29,58Zm14,0v3H31V58a1,1,0,0,1,1-1H42A1,1,0,0,1,43,58Z"></path>
    <path d="M59,50a4,4,0,1,0-4,4A4,4,0,0,0,59,50Zm-6,0a2,2,0,1,1,2,2A2,2,0,0,1,53,50Z"></path>
    <path d="M60,55H50a3,3,0,0,0-3,3v4a1,1,0,0,0,1,1H62a1,1,0,0,0,1-1V58A3,3,0,0,0,60,55Zm1,6H49V58a1,1,0,0,1,1-1H60a1,1,0,0,1,1,1Z"></path>
    <path d="M23,50a4,4,0,1,0-4,4A4,4,0,0,0,23,50Zm-6,0a2,2,0,1,1,2,2A2,2,0,0,1,17,50Z"></path>
    <path d="M11,58v4a1,1,0,0,0,1,1H26a1,1,0,0,0,1-1V58a3,3,0,0,0-3-3H14A3,3,0,0,0,11,58Zm14,0v3H13V58a1,1,0,0,1,1-1H24A1,1,0,0,1,25,58Z"></path>
    <rect x="43" y="7" width="16" height="2"></rect>
    <rect x="43" y="13" width="16" height="2"></rect><rect x="43" y="19" width="16" height="2"></rect>
    <rect x="43" y="25" width="16" height="2"></rect><rect x="43" y="31" width="16" height="2"></rect>
    <path d="M19,15a3,3,0,0,0-3,3h2a1,1,0,0,1,2,0h2A3,3,0,0,0,19,15Z"></path>
  </g>
</svg>
