<svg height='100px' width='100px' xmlns="http://www.w3.org/2000/svg" viewBox="0 0 64 64" x="0px" y="0px"><title>www, website, visit</title>
  <title>Web Pages</title>
  <style>
    path {
      fill: #171717;
    }
    @media (prefers-color-scheme: dark) {
      path {
        fill: #b5b5b5;
      }
    }
  </style>
  <g data-name="www">
    <path d="M24.708,51.7161l-1.3486,7.32A1.5025,1.5025,0,0,1,22.2471,60.22a1.4972,1.4972,0,0,1-1.5371-.5215l-1.835-2.3066L17.04,59.6985a1.5,1.5,0,0,1-2.6494-.6621l-1.3486-7.32a1.5,1.5,0,0,1,2.9512-.5429l.7509,4.0781.9571-1.2031a1.5529,1.5529,0,0,1,2.3476,0l.9571,1.2031.7509-4.0781a1.5,1.5,0,0,1,2.9512.5429Zm11.9209-1.747a1.5031,1.5031,0,0,0-1.7471,1.2041l-.7509,4.0781-.9571-1.2031a1.5529,1.5529,0,0,0-2.3476,0l-.9571,1.2031-.7509-4.0781a1.5,1.5,0,0,0-2.9512.5429l1.3486,7.32a1.5,1.5,0,0,0,2.6494.6621L32,57.3919l1.835,2.3066a1.5,1.5,0,0,0,2.6494-.6621l1.3486-7.32A1.5008,1.5008,0,0,0,36.6289,49.9691Zm13.125,0a1.5046,1.5046,0,0,0-1.7471,1.2041l-.7509,4.0781-.9571-1.2031a1.5529,1.5529,0,0,0-2.3476,0l-.9571,1.2031-.7509-4.0781a1.5,1.5,0,0,0-2.9512.5429l1.3486,7.32a1.5,1.5,0,0,0,2.6494.6621l1.835-2.3066,1.835,2.3066a1.5,1.5,0,0,0,2.6494-.6621l1.3486-7.32A1.5008,1.5008,0,0,0,49.7539,49.9691ZM20.1832,36.53a42.28,42.28,0,0,1-1.4467-9.9253H10.4456a21.4974,21.4974,0,0,0,4.6265,11.9126A29.5083,29.5083,0,0,1,20.1832,36.53Zm0-22.8506a29.5083,29.5083,0,0,1-5.1111-1.9873,21.4974,21.4974,0,0,0-4.6265,11.9126h8.2909A42.28,42.28,0,0,1,20.1832,13.68Zm25.08,9.9253h8.2909a21.4974,21.4974,0,0,0-4.6265-11.9126A29.5083,29.5083,0,0,1,43.8168,13.68,42.28,42.28,0,0,1,45.2635,23.6048ZM30.5,12.2449V3.735c-2.5555.8239-4.837,3.7082-6.4349,7.7923A41.2441,41.2441,0,0,0,30.5,12.2449Zm0,2.9992a44.0726,44.0726,0,0,1-7.3845-.8532A39.6071,39.6071,0,0,0,21.74,23.6048H30.5Zm0,11.3607H21.74a39.6071,39.6071,0,0,0,1.3756,9.2139A44.0726,44.0726,0,0,1,30.5,34.9655Zm0,19.87v-8.51a41.2441,41.2441,0,0,0-6.4349.7176C25.663,42.7664,27.9445,45.6507,30.5,46.4745Zm9.4349-7.7922A41.2441,41.2441,0,0,0,33.5,37.9647v8.51C36.0555,45.6507,38.337,42.7664,39.9349,38.6823ZM42.26,26.6048H33.5v8.3607a44.0726,44.0726,0,0,1,7.3845.8532A39.6071,39.6071,0,0,0,42.26,26.6048ZM40.8845,14.3909a44.0726,44.0726,0,0,1-7.3845.8532v8.3607h8.76A39.6071,39.6071,0,0,0,40.8845,14.3909ZM33.5,3.735v8.51a41.2441,41.2441,0,0,0,6.4349-.7176C38.337,7.4432,36.0555,4.5589,33.5,3.735ZM46.8217,9.3975A21.6524,21.6524,0,0,0,39.685,4.91a23.0178,23.0178,0,0,1,3.2038,5.9217A27.7119,27.7119,0,0,0,46.8217,9.3975ZM24.315,4.91a21.6524,21.6524,0,0,0-7.1367,4.488,27.7119,27.7119,0,0,0,3.9329,1.4337A23.0178,23.0178,0,0,1,24.315,4.91ZM17.1783,40.8121A21.6524,21.6524,0,0,0,24.315,45.3a23.0178,23.0178,0,0,1-3.2038-5.9217A27.7119,27.7119,0,0,0,17.1783,40.8121Zm29.6434,0a27.7119,27.7119,0,0,0-3.9329-1.4337A23.0178,23.0178,0,0,1,39.685,45.3,21.6524,21.6524,0,0,0,46.8217,40.8121ZM43.8168,36.53a29.5083,29.5083,0,0,1,5.1111,1.9873,21.4974,21.4974,0,0,0,4.6265-11.9126H45.2635A42.28,42.28,0,0,1,43.8168,36.53Z"></path>
  </g>
</svg>
