<svg height='100px' width='100px' xmlns="http://www.w3.org/2000/svg" xmlns:xlink="http://www.w3.org/1999/xlink" version="1.1" x="0px" y="0px" viewBox="0 0 91 91" enable-background="new 0 0 91 91" xml:space="preserve">
  <title>Directory</title>
  <style>
    path {
      fill: #171717;
    }
    circle {
      fill: #171717;
    }

    @media (prefers-color-scheme: dark) {
      path {
        fill: #b5b5b5;
      }
      circle {
        fill: #b5b5b5;
      }
    }
  </style>
  <g>
    <path d="M85.3,18.438V4.823c0-2.521-1.906-4.572-4.25-4.572H9.335c-2.342,0-4.246,2.051-4.246,4.572v19.412H5.03   c-2.34,0-4.244,2.051-4.244,4.572c0,0.078,0.004,0.156,0.012,0.232l4.293,38.393c0.066,2.463,1.945,4.445,4.244,4.445h15.92   c0.139,0,0.273-0.016,0.404-0.041c0.285,0.805,0.609,1.594,0.99,2.361l-2.527,2.527c-0.816,0.818-0.816,2.143,0.002,2.961   l6.629,6.629c0.785,0.785,2.176,0.785,2.961,0l2.525-2.527c0.877,0.434,1.781,0.809,2.707,1.117v3.578   c0,1.156,0.938,2.094,2.094,2.094h9.379c1.156,0,2.094-0.938,2.094-2.094v-3.578c0.93-0.311,1.832-0.684,2.703-1.117l2.527,2.527   c0.818,0.818,2.143,0.818,2.961,0l6.631-6.629c0.816-0.818,0.816-2.145,0-2.961l-2.529-2.529c0.396-0.797,0.736-1.623,1.029-2.467   c0.236,0.094,0.49,0.148,0.758,0.148H81.05c2.299,0,4.176-1.977,4.248-4.434l5.361-44.178c0.01-0.084,0.016-0.168,0.016-0.252   c0-2.523-1.906-4.576-4.246-4.576H85.3z M9.276,4.823c0-0.254,0.113-0.383,0.059-0.385L80.97,4.421   c0.027,0.018,0.143,0.146,0.143,0.402v13.615h-3.059V9.503c0-1.156-0.938-2.094-2.094-2.094H24.29   c-1.156,0-2.094,0.938-2.094,2.094v3.523h-7.273c-1.156,0-2.094,0.938-2.094,2.094v9.115H9.276V4.823z M50.06,18.438   c-0.773,0-1.484,0.426-1.848,1.107l-2.504,4.689H17.017v-7.021h47.482v1.225H50.06z M66.593,13.026H26.384v-1.43h47.482v6.842   h-5.18V15.12C68.687,13.964,67.749,13.026,66.593,13.026z M60.739,76.052l2.154,2.154l-3.67,3.668l-2.154-2.154   c-0.678-0.678-1.732-0.809-2.557-0.314c-1.418,0.85-2.967,1.49-4.605,1.902c-0.93,0.234-1.582,1.07-1.582,2.029v3.053h-5.191   v-3.053c0-0.961-0.654-1.797-1.586-2.031c-1.621-0.404-3.172-1.045-4.609-1.902c-0.824-0.492-1.877-0.361-2.553,0.316l-2.152,2.154   l-3.67-3.668l2.154-2.156c0.676-0.678,0.807-1.729,0.316-2.553c-0.859-1.438-1.5-2.988-1.904-4.605   c-0.232-0.932-1.07-1.586-2.031-1.586H24.05v-5.189l3.051-0.002c0.959,0,1.795-0.652,2.029-1.582   c0.408-1.623,1.051-3.176,1.906-4.615c0.488-0.822,0.357-1.873-0.32-2.551l-2.15-2.15l3.668-3.666l2.152,2.152   c0.678,0.676,1.732,0.809,2.555,0.316c1.439-0.861,2.988-1.502,4.605-1.906c0.934-0.232,1.588-1.07,1.588-2.031v-3.049h5.189   l0.002,3.051c0,0.961,0.654,1.797,1.586,2.029c1.617,0.404,3.168,1.045,4.605,1.906c0.824,0.49,1.877,0.361,2.555-0.316   l2.152-2.152l3.668,3.666l-2.152,2.15c-0.678,0.678-0.811,1.73-0.318,2.555c0.857,1.436,1.5,2.988,1.908,4.611   c0.232,0.932,1.07,1.584,2.029,1.584h3.049v5.189h-3.053c-0.959,0-1.797,0.652-2.031,1.584c-0.408,1.627-1.047,3.178-1.902,4.607   C59.931,74.321,60.06,75.374,60.739,76.052z M81.128,67.048c-0.012,0.084-0.016,0.168-0.016,0.252c0,0.258-0.117,0.391-0.063,0.391   h-9.455v-7.668c0-1.156-0.938-2.094-2.094-2.094h-3.574c-0.311-0.928-0.686-1.832-1.119-2.707l2.525-2.523   c0.395-0.393,0.615-0.926,0.615-1.482c0-0.555-0.221-1.088-0.613-1.48l-6.631-6.627c-0.818-0.818-2.143-0.818-2.961,0l-2.523,2.523   c-0.877-0.436-1.781-0.809-2.709-1.119l-0.002-3.574c0-1.156-0.938-2.094-2.094-2.094H41.04c-1.156,0-2.094,0.938-2.094,2.094   v3.574c-0.926,0.311-1.83,0.684-2.707,1.121l-2.525-2.525c-0.818-0.818-2.143-0.818-2.961,0l-6.629,6.627   c-0.393,0.393-0.613,0.926-0.613,1.48c0,0.557,0.221,1.088,0.613,1.48l2.525,2.527c-0.434,0.875-0.807,1.777-1.117,2.705h-3.576   c-1.156,0-2.094,0.938-2.094,2.094v7.674L9.423,67.71c-0.029-0.02-0.146-0.15-0.146-0.41c0-0.078-0.004-0.154-0.012-0.232   L4.978,28.726c0.02-0.199,0.1-0.301,0.055-0.303h41.932c0.773,0,1.484-0.426,1.848-1.107l2.504-4.689l15.184-0.01   c0.033,0.002,0.063,0.01,0.094,0.01c0.033,0,0.063-0.008,0.096-0.01l19.652-0.01c0.025,0.016,0.119,0.121,0.141,0.32L81.128,67.048   z"></path>
    <path d="M51.474,55.247c-0.775,0.857-0.711,2.182,0.146,2.957c1.832,1.662,2.885,4.033,2.885,6.506c0,4.84-3.936,8.777-8.773,8.777   c-4.84,0-8.777-3.938-8.777-8.777c0-4.838,3.938-8.773,8.777-8.773c1.156,0,2.094-0.938,2.094-2.094s-0.938-2.094-2.094-2.094   c-7.148,0-12.965,5.814-12.965,12.961c0,7.148,5.816,12.965,12.965,12.965c7.146,0,12.961-5.816,12.961-12.965   c0-3.652-1.553-7.156-4.26-9.609C53.573,54.323,52.249,54.39,51.474,55.247z"></path>
  </g>
</svg>
