<svg height='100px' width='100px' fill="currentColor" xmlns="http://www.w3.org/2000/svg" xmlns:xlink="http://www.w3.org/1999/xlink" xml:space="preserve" style="shape-rendering:geometricPrecision;text-rendering:geometricPrecision;image-rendering:optimizeQuality;" viewBox="0 0 8.33333 8.33333" x="0px" y="0px"><title>YAML File</title>
  <g><path d="M5.15481 1.68666l-2.71465 0 0 2.21042c0,0.066252 -0.0537402,0.119992 -0.119992,0.119992 -0.066252,0 -0.119992,-0.0537402 -0.119992,-0.119992l0 -2.33041c0,-0.066252 0.0537402,-0.119992 0.119992,-0.119992l2.91464 0c0.0320866,0 0.0625157,0.0128268 0.0851772,0.0354921l0.77802 0.77802c0.0225512,0.0225472 0.0351496,0.0529488 0.0351496,0.0848386l3.93701e-006 1.55205c0,0.066252 -0.0537402,0.119992 -0.119992,0.119992 -0.066252,0 -0.119992,-0.0537402 -0.119992,-0.119992l0 -1.47206 -0.269189 0c-0.129106,0 -0.246421,-0.0527638 -0.331417,-0.137756 -0.0849921,-0.0849961 -0.137756,-0.202311 -0.137756,-0.331417l0 -0.269189zm-2.71465 4.96002l3.45301 0 0 -0.62522c0,-0.066252 0.0537402,-0.119992 0.119992,-0.119992 0.066252,0 0.119992,0.0537402 0.119992,0.119992l0 0.745213c0,0.066252 -0.0537402,0.119992 -0.119992,0.119992l-3.693 0c-0.066252,0 -0.119992,-0.0537402 -0.119992,-0.119992l0 -0.745213c0,-0.066252 0.0537402,-0.119992 0.119992,-0.119992 0.066252,0 0.119992,0.0537402 0.119992,0.119992l0 0.62522z"></path><polygon points="3.0052,2.8249 5.32812,2.8249 5.32812,3.02489 3.0052,3.02489 "></polygon><polygon points="3.0052,3.2995 5.32812,3.2995 5.32812,3.49949 3.0052,3.49949 "></polygon><polygon points="3.0052,2.3503 4.64759,2.3503 4.64759,2.5503 3.0052,2.5503 "></polygon><path d="M2.72257 4.85324l0.234024 -0.401622 0.236154 0 -0.373256 0.589315 0 0.425969 -0.204476 0 0 -0.42739 -0.371831 -0.587894 0.240406 0 0.23898 0.401622zm0.338508 0.613661l0.395476 -1.01528 0.216768 0 0.406583 1.01528 -0.22315 0 -0.0886417 -0.230713 -0.405878 0 -0.0836811 0.230713 -0.217476 0zm1.12473 0l0 -1.01528 0.306831 0 0.184146 0.692614 0.18202 -0.692614 0.307535 0 0 1.01528 -0.190291 0 0 -0.799224 -0.201638 0.799224 -0.197382 0 -0.200929 -0.799224 0 0.799224 -0.190291 0zm1.18973 0l0 -1.00701 0.204949 0 0 0.835862 0.50965 0 0 0.171146 -0.714598 0zm-2.93539 0.634551l3.45301 0 0.239984 0 0.401661 0c0.0441811,0 0.08,-0.0358189 0.08,-0.08l0 -2.12438c0,-0.0441811 -0.0358189,-0.08 -0.08,-0.08l-0.401661 0 -0.239984 0 -3.45301 0 -0.239984 0 -0.401661 0c-0.0441811,0 -0.08,0.0358189 -0.08,0.08l0 2.12438c0,0.0441811 0.0358189,0.08 0.08,0.08l0.401661 0 0.239984 0z"></path><polygon points="3.56246,4.68848 3.42535,5.06528 3.7024,5.06528 "></polygon></g>
  <rect width="8.33333" height="8.33333"></rect>
</svg>
