<svg height='100px' width='100px' xmlns="http://www.w3.org/2000/svg" xmlns:xlink="http://www.w3.org/1999/xlink" viewBox="0 0 64 64" version="1.1" x="0px" y="0px"><title>icon-update</title>
  <title>Update Documentation</title>
  <style>
    path {
      fill: #171717;
    }
    @media (prefers-color-scheme: dark) {
      path {
        fill: #b5b5b5;
      }
    }
  </style>
  <g stroke="none" stroke-width="1" fill="none" fill-rule="evenodd">
    <path d="M58.5,30.9 C59.1,30.9 59.5,31.3 59.5,31.7 L59.5,31.7 L59.5,31.9 C59.5,47.2 47.1,59.6 31.8,59.6 C22.9,59.6 14.7,55.5 9.5,48.4 L9.5,48.4 L9.5,53.5 C9.5,54.1 9.1,54.5 8.5,54.5 C7.9,54.5 7.5,54 7.5,53.5 L7.5,53.5 L7.5,46.2 C7.5,45.6 8,45.2 8.5,45.2 L8.5,45.2 L15.8,45.2 C16.4,45.2 16.8,45.6 16.8,46.2 C16.8,46.8 16.3,47.2 15.8,47.2 L15.8,47.2 L10.8,47.2 C15.7,53.9 23.4,57.8 31.7,57.8 C45.9,57.8 57.5,46.3 57.5,32 L57.5,32 L57.5,31.9 C57.5,31.3 58,30.9 58.5,30.9 Z M43.2,18.8 C45.1,18.8 46.6,20.3 46.6,22.2 L46.6,22.2 L46.6,41.8 C46.6,43.7 45.1,45.2 43.2,45.2 L43.2,45.2 L20.3,45.2 C18.4,45.2 16.9,43.7 16.9,41.8 L16.9,41.8 L16.9,22.3 C16.9,20.4 18.4,18.9 20.3,18.9 L20.3,18.9 L27.6,18.9 C28.1,18.9 28.5,19.3 28.5,19.8 C28.5,20.3 28.1,20.7 27.6,20.7 L27.6,20.7 L20.3,20.7 C19.5,20.7 18.8,21.3 18.8,22.1 L18.8,22.1 L18.8,23.4 L44.7,23.4 L44.7,22.1 C44.7,21.3 44,20.6 43.2,20.6 L43.2,20.6 L35.9,20.6 C35.4,20.6 35,20.2 35,19.7 C35,19.2 35.4,18.8 35.9,18.8 L35.9,18.8 Z M44.7,25.3 L18.8,25.3 L18.8,41.7 C18.8,42.5 19.5,43.2 20.3,43.2 L20.3,43.2 L43.2,43.2 C44,43.2 44.7,42.5 44.7,41.7 L44.7,41.7 L44.7,25.3 Z M40.8,36.7 C41.3,36.7 41.7,37.1 41.7,37.6 C41.7,38.1 41.3,38.5 40.8,38.5 L40.8,38.5 L33.2,38.5 C32.7,38.5 32.3,38.1 32.3,37.6 C32.3,37.1 32.7,36.7 33.2,36.7 L33.2,36.7 Z M29,29.7 C29.5,29.7 29.9,30.1 29.9,30.6 L29.9,30.6 L29.9,37.6 C29.9,38.1 29.5,38.5 29,38.5 L29,38.5 L22.6,38.5 C22.1,38.5 21.7,38.1 21.7,37.6 L21.7,37.6 L21.7,30.6 C21.7,30.1 22.1,29.7 22.6,29.7 L22.6,29.7 Z M28.2,31.5 L23.6,31.5 L23.6,36.7 L28.2,36.7 L28.2,31.5 Z M40.8,33.2 C41.3,33.2 41.7,33.6 41.7,34.1 C41.7,34.6 41.3,35 40.8,35 L40.8,35 L33.2,35 C32.7,35 32.3,34.6 32.3,34.1 C32.3,33.6 32.7,33.2 33.2,33.2 L33.2,33.2 Z M31.7,4.3 C40.1,4.3 48.1,8.1 53.3,14.6 L53.3,14.6 L53.3,9.7 C53.3,9.1 53.7,8.7 54.3,8.7 C54.9,8.7 55.3,9.2 55.3,9.7 L55.3,9.7 L55.3,17.1 C55.3,17.7 54.8,18.1 54.3,18.1 L54.3,18.1 L47,18.1 C46.4,18.1 46,17.7 46,17.1 C46,16.5 46.5,16.1 47,16.1 L47,16.1 L52.2,16.1 C47.3,9.9 39.8,6.2 31.8,6.2 C17.7,6.2 6.2,17.5 5.9,31.7 C5.8,32.2 5.4,32.6 4.9,32.6 L4.9,32.6 L4.79449708,32.5925292 C4.34489796,32.5285714 4,32.0642857 4,31.6 C4.2,16.5 16.7,4.3 31.7,4.3 Z M40.8,29.7 C41.3,29.7 41.7,30.1 41.7,30.6 C41.7,31.1 41.3,31.5 40.8,31.5 L40.8,31.5 L33.2,31.5 C32.7,31.5 32.3,31.1 32.3,30.6 C32.3,30.1 32.7,29.7 33.2,29.7 L33.2,29.7 Z M31.8,18.8 C32.3,18.8 32.7,19.2 32.7,19.7 C32.7,20.2 32.3,20.7 31.8,20.6 C31.3,20.6 30.9,20.2 30.9,19.7 C30.9,19.2 31.3,18.8 31.8,18.8 Z" fill-rule="nonzero"></path>
  </g>
</svg>
