<svg height='100px' width='100px' xmlns="http://www.w3.org/2000/svg" xmlns:xlink="http://www.w3.org/1999/xlink" version="1.2" baseProfile="tiny" x="0px" y="0px" viewBox="0 0 100 100" xml:space="preserve">
  <title>Accessibility Documentation</title>
  <style>
    path {
      fill: #171717;
    }
    rect {
      fill: #171717;
    }
    polygon {
      fill: #171717;
    }
    @media (prefers-color-scheme: dark) {
      path {
        fill: #b5b5b5;
      }
      rect {
        fill: #b5b5b5;
      }
      polygon {
        fill: #b5b5b5;
      }
    }
  </style>
  <g>
    <path d="M22.5,95h55c4.142,0,7.5-3.358,7.5-7.5V20c0-4.142-3.358-7.5-7.5-7.5H65v-5C65,6.119,63.881,5,62.5,5h-25  C36.119,5,35,6.119,35,7.5v5H22.5c-4.142,0-7.5,3.358-7.5,7.5v67.5C15,91.642,18.358,95,22.5,95z M40,10h20v5H40V10z M22.5,20h15h25  h15v67.5h-55V20z"></path>
    <path d="M40,47.5c2.757,0,5-2.243,5-5s-2.243-5-5-5s-5,2.243-5,5S37.243,47.5,40,47.5z"></path>
    <path d="M40,77.5c-4.136,0-7.5-3.364-7.5-7.5c0-1.014,0.198-1.996,0.588-2.918c0.378-0.893,0.919-1.696,1.608-2.385  c0.69-0.689,1.493-1.231,2.386-1.609l-1.949-4.604c-1.488,0.63-2.824,1.531-3.972,2.678c-1.146,1.147-2.047,2.483-2.678,3.972  C27.831,66.676,27.5,68.313,27.5,70c0,6.893,5.607,12.5,12.5,12.5S52.5,76.893,52.5,70h-5C47.5,74.136,44.136,77.5,40,77.5z"></path>
    <polygon points="46.545,62.5 44.045,57.5 52.5,57.5 52.5,52.5 41.545,52.5 39.736,48.882 35.264,51.118 43.455,67.5 53.455,67.5   57.764,76.118 62.236,73.882 56.545,62.5 "></polygon>
    <rect x="50" y="27.5" width="22.5" height="5"></rect><rect x="50" y="35" width="22.5" height="5"></rect>
    <rect x="50" y="42.5" width="22.5" height="5"></rect>
  </g>
</svg>
