<svg height='100px' width='100px' xmlns="http://www.w3.org/2000/svg" xmlns:xlink="http://www.w3.org/1999/xlink" version="1.1" x="0px" y="0px" viewBox="0 0 100 100" style="enable-background:new 0 0 100 100;" xml:space="preserve">
  <title>Government Documentation</title>
  <style>
    path {
      fill: #171717;
    }
    @media (prefers-color-scheme: dark) {
      path {
        fill: #b5b5b5;
      }
    }
  </style>
  <g>
    <path d="M44.4111328,74.765625c-0.5522461,0-1,0.4472656-1,1s0.4477539,1,1,1h35.9101562c0.5522461,0,1-0.4472656,1-1  s-0.4477539-1-1-1h-1.1586914V64.5830078h1.1586914c0.5522461,0,1-0.4472656,1-1s-0.4477539-1-1-1h-2.6020508V52.2158203h0.4433594  c0.5522461,0,1-0.4472656,1-1v-2.1005859c0-8.8309326-7.0375366-16.0305176-15.7963867-16.3299561v-3.1251221  c0-0.5527344-0.4477539-1-1-1s-1,0.4472656-1,1v3.1251221c-8.7589722,0.2991943-15.796875,7.4989014-15.796875,16.3299561v2.1005859  c0,0.5527344,0.4477539,1,1,1h0.4433594v10.3671875h-2.6015625c-0.5522461,0-1,0.4472656-1,1s0.4477539,1,1,1h1.5131836V74.765625  H44.4111328z M58.4199219,64.5830078V74.765625h-4.2475586V64.5830078H58.4199219z M70.9150391,64.5830078V74.765625h-4.2475586  V64.5830078H70.9150391z M64.6674805,74.765625h-4.2475586V64.5830078h4.2475586V74.765625z M77.1625977,74.765625h-4.2475586  V64.5830078h4.2475586V74.765625z M47.5693359,49.1152344c0-7.9169922,6.440918-14.3583984,14.3579102-14.3583984h0.8774414  c7.9169922,0,14.3579102,6.4414062,14.3579102,14.3583984v1.1005859H47.5693359V49.1152344z M49.0126953,52.2158203h26.706543  v10.3671875h-26.706543V52.2158203z M47.9243164,64.5830078h4.2480469V74.765625h-4.2480469V64.5830078z"></path>
    <path d="M54.0405273,54.4404297c-0.5522461,0-1,0.4472656-1,1v3.8574219c0,0.5527344,0.4477539,1,1,1s1-0.4472656,1-1v-3.8574219  C55.0405273,54.8876953,54.5927734,54.4404297,54.0405273,54.4404297z"></path>
    <path d="M59.5908203,54.4404297c-0.5522461,0-1,0.4472656-1,1v3.8574219c0,0.5527344,0.4477539,1,1,1s1-0.4472656,1-1v-3.8574219  C60.5908203,54.8876953,60.1430664,54.4404297,59.5908203,54.4404297z"></path>
    <path d="M65.1411133,54.4404297c-0.5522461,0-1,0.4472656-1,1v3.8574219c0,0.5527344,0.4477539,1,1,1s1-0.4472656,1-1v-3.8574219  C66.1411133,54.8876953,65.6933594,54.4404297,65.1411133,54.4404297z"></path>
    <path d="M70.6914062,54.4404297c-0.5522461,0-1,0.4472656-1,1v3.8574219c0,0.5527344,0.4477539,1,1,1s1-0.4472656,1-1v-3.8574219  C71.6914062,54.8876953,71.2436523,54.4404297,70.6914062,54.4404297z"></path>
    <path d="M89,18.40625H65.2666016V11c0-0.5527344-0.4477539-1-1-1H10.9990234c-0.5522461,0-1,0.4472656-1,1v69.59375  c0,0.5527344,0.4477539,1,1,1h23.7329102V89c0,0.5527344,0.4477539,1,1,1H89c0.5522461,0,1-0.4472656,1-1V19.40625  C90,18.8535156,89.5522461,18.40625,89,18.40625z M11.9990234,79.59375V12h51.2675781v6.40625h-27.534668  c-0.5522461,0-1,0.4472656-1,1v2.4179688H20.3945312c-0.5522461,0-1,0.4472656-1,1s0.4477539,1,1,1h14.3374023v4.7519531H20.3945312  c-0.5522461,0-1,0.4472656-1,1s0.4477539,1,1,1h14.3374023v4.7519531H20.3945312c-0.5522461,0-1,0.4472656-1,1s0.4477539,1,1,1  h14.3374023v4.7529297H20.3945312c-0.5522461,0-1,0.4472656-1,1s0.4477539,1,1,1h14.3374023V79.59375H11.9990234z M88,88H36.7319336  V20.40625H88V88z"></path>
    <path d="M20.3945312,63.1953125h6.8540039c0.5522461,0,1-0.4472656,1-1s-0.4477539-1-1-1h-6.8540039c-0.5522461,0-1,0.4472656-1,1  S19.8422852,63.1953125,20.3945312,63.1953125z"></path>
    <path d="M27.2485352,67.9472656h-6.8540039c-0.5522461,0-1,0.4472656-1,1s0.4477539,1,1,1h6.8540039c0.5522461,0,1-0.4472656,1-1  S27.8007812,67.9472656,27.2485352,67.9472656z"></path>
  </g>
</svg>
