<svg height='100px' width='100px' xmlns="http://www.w3.org/2000/svg" xmlns:xlink="http://www.w3.org/1999/xlink" version="1.1" x="0px" y="0px" viewBox="0 0 64 64" style="enable-background:new 0 0 64 64;" xml:space="preserve">
  <title>Stakeholders</title>
  <style>
    path {
      fill: #171717;
    }
    circle {
      fill: #171717;
    }

    @media (prefers-color-scheme: dark) {
      path {
        fill: #b5b5b5;
      }
      circle {
        fill: #b5b5b5;
      }
    }
  </style>
  <g>
    <path d="M13,15c-3.302,0-5.989,2.682-5.999,5.982C8.674,22.243,10.748,23,13,23s4.326-0.757,5.999-2.018 C18.989,17.682,16.302,15,13,15z"></path>
    <circle cx="13" cy="10" r="3"></circle>
    <path d="M9.695,13.723C8.664,12.806,8,11.485,8,10c0-2.757,2.243-5,5-5s5,2.243,5,5c0,1.485-0.664,2.806-1.695,3.723 c2.248,1.025,3.94,3.057,4.495,5.52C22.173,17.53,23,15.361,23,13c0-5.514-4.486-10-10-10S3,7.486,3,13   c0,2.361,0.827,4.53,2.201,6.243C5.755,16.78,7.447,14.748,9.695,13.723z"></path>
    <path d="M45.001,20.982C46.674,22.243,48.748,23,51,23s4.326-0.757,5.999-2.018C56.989,17.682,54.302,15,51,15 S45.011,17.682,45.001,20.982z"></path>
    <path d="M47.695,13.723C46.664,12.806,46,11.485,46,10c0-2.757,2.243-5,5-5s5,2.243,5,5c0,1.485-0.664,2.806-1.695,3.723   c2.248,1.025,3.94,3.057,4.495,5.52C60.173,17.53,61,15.361,61,13c0-5.514-4.486-10-10-10S41,7.486,41,13   c0,2.361,0.827,4.53,2.201,6.243C43.755,16.78,45.447,14.748,47.695,13.723z"></path>
    <circle cx="51" cy="10" r="3"></circle>
    <path d="M51,41c-5.514,0-10,4.486-10,10c0,2.361,0.827,4.53,2.201,6.243c0.555-2.463,2.247-4.495,4.495-5.52 C46.664,50.806,46,49.485,46,48c0-2.757,2.243-5,5-5s5,2.243,5,5c0,1.485-0.664,2.806-1.695,3.723   c2.248,1.025,3.94,3.057,4.495,5.52C60.173,55.53,61,53.361,61,51C61,45.486,56.514,41,51,41z"></path>
    <path d="M51,53c-3.302,0-5.989,2.682-5.999,5.982C46.674,60.243,48.748,61,51,61s4.326-0.757,5.999-2.018 C56.989,55.682,54.302,53,51,53z"></path>
    <circle cx="51" cy="48" r="3"></circle>
    <path d="M23,51c0-5.514-4.486-10-10-10S3,45.486,3,51v10h10C18.514,61,23,56.514,23,51z M10,58H8v-2h2V58z M14,58h-2v-2h2V58z M18,58h-2v-2h2V58z M18,54H8v-2h10V54z M18,50H8v-2h10V50z M18,46H8v-2h10V46z"></path>
    <path d="M26.582,47.662c-0.338-1.377-0.882-2.691-1.619-3.904l-0.318-0.524l1.229-1.986l-3.123-3.123l-1.986,1.229l-0.524-0.318 c-1.214-0.737-2.528-1.281-3.904-1.619l-0.595-0.146L15.208,35h-4.416l-0.535,2.272l-0.595,0.146   c-1.376,0.337-2.689,0.882-3.904,1.619l-0.484,0.294L3,38.131v6.25C5.151,41.142,8.829,39,13,39c6.617,0,12,5.383,12,12 c0,4.171-2.142,7.849-5.381,10h6.25l-1.2-2.273l0.294-0.484c0.737-1.214,1.281-2.528,1.619-3.904l0.146-0.595L29,53.208v-4.416 l-2.272-0.535L26.582,47.662z"></path>
    <path d="M31,50v2h8.05C39.023,51.669,39,51.338,39,51s0.023-0.669,0.05-1H31z"></path>
    <path d="M43.255,22.159c-0.51-0.431-0.983-0.904-1.414-1.414l-16.82,16.82l1.414,1.414L43.255,22.159z"></path>
    <path d="M12,24.95V33h2v-8.05C13.669,24.977,13.338,25,13,25S12.331,24.977,12,24.95z"></path>
  </g>
</svg>
