<svg height='100px' width='100px' xmlns:dc="http://purl.org/dc/elements/1.1/" xmlns:cc="http://creativecommons.org/ns#" xmlns:rdf="http://www.w3.org/1999/02/22-rdf-syntax-ns#" xmlns:svg="http://www.w3.org/2000/svg" xmlns="http://www.w3.org/2000/svg" xmlns:sodipodi="http://sodipodi.sourceforge.net/DTD/sodipodi-0.dtd" xmlns:inkscape="http://www.inkscape.org/namespaces/inkscape" version="1.1" x="0px" y="0px" viewBox="0 0 100 100">
  <title>Submit Documentation</title>
  <style>
    path {
      fill: #171717;
    }
    @media (prefers-color-scheme: dark) {
      path {
        fill: #b5b5b5;
      }
    }
  </style>
  <g transform="translate(0,-952.36218)">
    <path style="text-indent:0;text-transform:none;direction:ltr;block-progression:tb;baseline-shift:baseline;color:#000000;enable-background:accumulate;" d="m 41.812224,958.36218 c -1.047332,0.0489 -1.955727,1.04644 -1.906633,2.09377 0.04909,1.04733 1.046819,1.95553 2.094132,1.90623 l 15.999873,0 c 1.056629,0.015 2.028504,-0.94326 2.028504,-2 0,-1.05674 -0.971875,-2.01496 -2.028504,-2 -5.389748,0 -10.811683,0 -16.187372,0 z m 0,8 c -0.98316,0.0927 -1.816743,1.01249 -1.812485,2 l 0,20 -7.999937,0 c -0.738074,0.009 -1.453473,0.46254 -1.775814,1.12657 -0.322341,0.66403 -0.236401,1.50688 0.213326,2.09218 l 17.999858,22.99997 c 0.746368,0.9339 2.378607,0.9339 3.124975,0 l 17.999858,-22.99997 c 0.449727,-0.5853 0.535668,-1.42815 0.213326,-2.09218 -0.32234,-0.66403 -1.03774,-1.11787 -1.775814,-1.12657 l -7.999936,0 0,-20 c -1.05e-4,-1.04717 -0.952824,-1.99989 -1.999985,-2 -5.389749,0 -10.811677,0 -16.187372,0 z m 2.187483,4 11.999905,0 0,20 c 1.05e-4,1.04717 0.952824,1.9999 1.999984,2 l 5.906204,0 -13.90614,17.75002 -13.90614,-17.75002 5.906203,0 c 1.047161,-10e-5 1.999879,-0.95283 1.999984,-2 z m -23.187316,7 c -0.799506,0.0688 -1.527193,0.66658 -1.749986,1.4375 L 7.124999,1020.6434 c -0.1128831,0.3206 -0.1270778,0.435 -0.124999,0.5625 -0.00148,7.6754 0,15.4504 0,23.1563 1.05e-4,1.0471 0.9528236,1.9999 1.9999842,2 l 81.9993508,0 c 1.047161,-10e-5 1.999879,-0.9529 1.999984,-2 1e-5,-7.7231 0,-15.5628 0,-23.25 0.0013,-0.068 -0.05891,-0.2051 -0.09375,-0.3438 L 81.936907,978.83093 c -0.231431,-0.83976 -1.066432,-1.47275 -1.937485,-1.46875 l -13.999889,0 c -0.06245,-0.003 -0.125045,-0.003 -0.187498,0 -1.047333,0.0489 -1.955728,1.04644 -1.906634,2.09377 0.04909,1.04733 1.046819,1.95553 2.094132,1.90623 l 12.468651,0 9.937422,38.00002 -22.406073,0 c -1.047161,10e-5 -1.999879,0.9528 -1.999984,2 l 0,6 -27.999779,0 0,-6 c -1.05e-4,-1.0472 -0.952823,-1.9999 -1.999984,-2 l -22.343573,0 10.874914,-38.00002 11.468659,0 c 1.056629,0.015 2.028504,-0.94326 2.028504,-2 0,-1.05674 -0.971875,-2.01496 -2.028504,-2 -4.389236,0 -8.812423,0 -13.187395,0 z m -9.812423,46.00002 20.999834,0 0,6 c 1.05e-4,1.0471 0.952824,1.9999 1.999984,2 l 31.999747,0 c 1.047161,-10e-5 1.999879,-0.9529 1.999984,-2 l 0,-6 20.999834,0 0,19 -77.999383,0 z" fill-opacity="1" stroke="none" marker="none" visibility="visible" display="inline" overflow="visible"></path>
  </g>
</svg>
