<svg height='100px' width='100px' xmlns="http://www.w3.org/2000/svg" xmlns:xlink="http://www.w3.org/1999/xlink" version="1.1" x="0px" y="0px" viewBox="0 0 64 64" style="enable-background:new 0 0 64 64;" xml:space="preserve">
  <title>Document Editor</title>
  <style>
    path {
      fill: #171717;
    }
    rect {
      fill: #171717;
    }
    @media (prefers-color-scheme: dark) {
      path {
        fill: #b5b5b5;
      }
      rect {
        fill: #b5b5b5;
      }
    }
  </style>
  <g>
    <path d="M5,31h22V13H5V31z M7,15h18v14H7V15z"></path>
    <path d="M63,1H1v48h4v2.767l2.815,0.755c0.112,0.298,0.236,0.595,0.374,0.892L6.73,55.943l5.326,5.328l2.529-1.459   c0.296,0.137,0.594,0.262,0.892,0.374L16.232,63h7.535l0.755-2.815c0.298-0.112,0.596-0.236,0.892-0.374l2.529,1.459l5.326-5.328   l-1.459-2.529c0.138-0.296,0.262-0.594,0.374-0.892L35,51.767V49h4v7c0,3.86,3.141,7,7,7s7-3.14,7-7v-7h10V1z M61,3v6H3V3H61z M33,50.233l-2.368,0.635l-0.168,0.517c-0.174,0.536-0.4,1.079-0.675,1.614l-0.247,0.484l1.229,2.131l-3.158,3.158l-2.131-1.23 l-0.484,0.248c-0.534,0.273-1.077,0.5-1.613,0.674l-0.517,0.167L22.232,61h-4.465l-0.636-2.369l-0.517-0.167 c-0.536-0.174-1.079-0.401-1.613-0.674l-0.484-0.248l-2.131,1.23l-3.158-3.158l1.229-2.131l-0.247-0.484   c-0.274-0.536-0.501-1.079-0.675-1.614l-0.168-0.517L7,50.233v-4.466l2.368-0.635l0.168-0.517c0.174-0.536,0.4-1.079,0.675-1.614   l0.247-0.484l-1.229-2.131l3.158-3.158l2.131,1.23l0.484-0.248c0.534-0.273,1.077-0.5,1.613-0.674l0.517-0.167L17.768,35h4.465   l0.636,2.369l0.517,0.167c0.536,0.174,1.079,0.401,1.613,0.674l0.484,0.248l2.131-1.23l3.158,3.158l-1.229,2.131l0.247,0.484   c0.274,0.536,0.501,1.079,0.675,1.614l0.168,0.517L33,45.767V50.233z M41,51h10v2H41V51z M47,49V31h-2v18h-4V27h4v2h2v-2h4v22H47z M42,25l4-5.333L50,25H42z M46,16.333l-7,9.333V31h-8V15h26v16h-4v-5.333L46,16.333z M46,61c-2.757,0-5-2.243-5-5v-1h10v1 C51,58.757,48.757,61,46,61z M53,47V33h6V13H29v20h10v14h-4v-2.767l-2.815-0.755c-0.112-0.298-0.236-0.595-0.374-0.892l1.459-2.529 l-5.326-5.328l-2.529,1.459c-0.296-0.137-0.594-0.262-0.892-0.374L23.768,33h-7.535l-0.755,2.815 c-0.298,0.112-0.596,0.236-0.892,0.374l-2.529-1.459L6.73,40.057l1.459,2.529c-0.138,0.296-0.262,0.594-0.374,0.892L5,44.233V47H3 V11h58v36H53z"></path>
    <rect x="5" y="5" width="2" height="2"></rect><rect x="9" y="5" width="2" height="2"></rect>
    <rect x="13" y="5" width="2" height="2"></rect><path d="M20,39c-4.963,0-9,4.038-9,9s4.037,9,9,9s9-4.038,9-9S24.963,39,20,39z M20,55c-3.859,0-7-3.14-7-7s3.141-7,7-7s7,3.14,7,7 S23.859,55,20,55z"></path>
    <rect x="9" y="17" width="14" height="2"></rect>
    <rect x="9" y="21" width="14" height="2"></rect><rect x="9" y="25" width="14" height="2"></rect><path d="M20,43c-2.757,0-5,2.243-5,5s2.243,5,5,5s5-2.243,5-5S22.757,43,20,43z M20,51c-1.654,0-3-1.346-3-3s1.346-3,3-3 s3,1.346,3,3S21.654,51,20,51z"></path>
  </g>
</svg>
