
<svg height='100px' width='100px' xmlns="http://www.w3.org/2000/svg" xmlns:xlink="http://www.w3.org/1999/xlink" xml:space="preserve" style="shape-rendering:geometricPrecision;text-rendering:geometricPrecision;image-rendering:optimizeQuality;" viewBox="0 0 10.37 10.37" x="0px" y="0px" fill-rule="evenodd" clip-rule="evenodd">
  <defs>
    <style type="text/css">
      .fil0 {
        fill: #171717;
      }
      .fil1 {fill:none}
      .fil2 {
        fill: #171717;fill-rule:nonzero;
      }
    polygon {
      .fil0: #171717;
    }

    @media (prefers-color-scheme: dark) {
      .fil0 {
        fill: #b5b5b5;
      }
      .fil1 {fill:none}
      .fil2 {
        fill: #b5b5b5;fill-rule:nonzero;
      }
    }
    </style>
  </defs>
  <title>YAML File</title>
  <g>
    <path class="fil0" d="M6.17314 2.70499l-2.71465 0 0 2.21042c0,0.066252 -0.0537402,0.119992 -0.119992,0.119992 -0.066252,0 -0.119992,-0.0537402 -0.119992,-0.119992l0 -2.33041c0,-0.066252 0.0537402,-0.119992 0.119992,-0.119992l2.91464 0c0.0320866,0 0.0625157,0.0128268 0.0851772,0.0354921l0.77802 0.77802c0.0225512,0.0225472 0.0351496,0.0529488 0.0351496,0.0848386l3.93701e-006 1.55205c0,0.066252 -0.0537402,0.119992 -0.119992,0.119992 -0.066252,0 -0.119992,-0.0537402 -0.119992,-0.119992l0 -1.47206 -0.269189 0c-0.129106,0 -0.246421,-0.0527638 -0.331417,-0.137756 -0.0849921,-0.0849961 -0.137756,-0.202311 -0.137756,-0.331417l0 -0.269189zm-2.71465 4.96002l3.45301 0 0 -0.62522c0,-0.066252 0.0537402,-0.119992 0.119992,-0.119992 0.066252,0 0.119992,0.0537402 0.119992,0.119992l0 0.745213c0,0.066252 -0.0537402,0.119992 -0.119992,0.119992l-3.693 0c-0.066252,0 -0.119992,-0.0537402 -0.119992,-0.119992l0 -0.745213c0,-0.066252 0.0537402,-0.119992 0.119992,-0.119992 0.066252,0 0.119992,0.0537402 0.119992,0.119992l0 0.62522z"></path>
    <polygon class="fil0" points="4.02354,3.84324 6.34646,3.84324 6.34646,4.04323 4.02354,4.04323 "></polygon>
    <polygon class="fil0" points="4.02354,4.31783 6.34646,4.31783 6.34646,4.51782 4.02354,4.51782 "></polygon>
    <polygon class="fil0" points="4.02354,3.36864 5.66592,3.36864 5.66592,3.56863 4.02354,3.56863 "></polygon>
    <path class="fil0" d="M3.74091 5.87157l0.234024 -0.401622 0.236154 0 -0.373256 0.589315 0 0.425969 -0.204476 0 0 -0.42739 -0.371831 -0.587894 0.240406 0 0.23898 0.401622zm0.338508 0.613661l0.395476 -1.01528 0.216768 0 0.406583 1.01528 -0.22315 0 -0.0886417 -0.230713 -0.405878 0 -0.0836811 0.230713 -0.217476 0zm1.12473 0l0 -1.01528 0.306831 0 0.184146 0.692614 0.18202 -0.692614 0.307535 0 0 1.01528 -0.190291 0 0 -0.799224 -0.201638 0.799224 -0.197382 0 -0.200929 -0.799224 0 0.799224 -0.190291 0zm1.18973 0l0 -1.00701 0.204949 0 0 0.835862 0.50965 0 0 0.171146 -0.714598 0zm-2.93539 0.634551l3.45301 0 0.239984 0 0.401661 0c0.0441811,0 0.08,-0.0358189 0.08,-0.08l0 -2.12438c0,-0.0441811 -0.0358189,-0.08 -0.08,-0.08l-0.401661 0 -0.239984 0 -3.45301 0 -0.239984 0 -0.401661 0c-0.0441811,0 -0.08,0.0358189 -0.08,0.08l0 2.12438c0,0.0441811 0.0358189,0.08 0.08,0.08l0.401661 0 0.239984 0z"></path>
    <polygon class="fil0" points="4.5808,5.70681 4.44369,6.08361 4.72074,6.08361"></polygon>
    <rect class="fil1" width="10.37" height="10.37"></rect><path class="fil2" d="M5.265 0.046874l2.16506 1.25 -0.00015748 0.000271654 2.1646 1.24972 0.080626 0.0465512 0 0.0915748 0 2.5 0 2.5 0 0.0915748 -0.080626 0.0465512 -2.1646 1.24972 0.00015748 0.000271654 -2.16506 1.25 -0.08 0.046185 -0.08 -0.046185 -2.16506 -1.25 0.00015748 -0.000271654 -2.1646 -1.24972 -0.080626 -0.0465512 0 -0.0915748 0 -2.5 0 -2.5 0 -0.0915748 0.080626 -0.0465512 2.1646 -1.24972 -0.00015748 -0.000271654 2.16506 -1.25 0.08 -0.046185 0.08 0.046185zm-0.0800039 0.508067l-1.58863 0.917197 0.00015748 0.000275591 -2.42165 1.39813 0 4.62891 2.42165 1.39813 -0.00015748 0.000271654 1.58864 0.917201 1.58863 -0.917197 -0.00015748 -0.000275591 2.42165 -1.39813 0 -4.62891 -2.42165 -1.39813 0.00015748 -0.000271654 -1.58864 -0.917201z"></path>
  </g>
</svg>
