<svg height='100px' width='100px' xmlns="http://www.w3.org/2000/svg" viewBox="0 0 64 64" x="0px" y="0px">
  <title>HTML Web Pages</title>
  <style>
    path {
      fill: #171717;
    }
    rect {
      fill: #171717;
    }
    polygon {
      fill: #171717;
    }
    @media (prefers-color-scheme: dark) {
      path {
        fill: #b5b5b5;
      }
      rect {
        fill: #b5b5b5;
      }
      polygon {
        fill: #b5b5b5;
      }
    }
  </style>
  <g>
    <path d="M50,3a1,1,0,0,0-1-1H17a1,1,0,0,0-.708.294l-10,10A1,1,0,0,0,6,13V52H2v5a5.006,5.006,0,0,0,5,5H45a5.006,5.006,0,0,0,5-5V22H61V6H50ZM16,5.414V12H9.414ZM4,57V54H40v3a4.948,4.948,0,0,0,1.026,3H7A3,3,0,0,1,4,57Zm44,0a3,3,0,0,1-6,0V53a1,1,0,0,0-1-1H8V14h9a1,1,0,0,0,1-1V4H48V6H20V22H48ZM59,20H22V8H59Z"></path>
    <rect x="10" y="16" width="2" height="2"></rect>
    <rect x="14" y="19" width="2" height="2"></rect>
    <rect x="44" y="50" width="2" height="2"></rect><polygon points="26 15 28 15 28 18 30 18 30 10 28 10 28 13 26 13 26 10 24 10 24 18 26 18 26 15"></polygon>
    <polygon points="34 18 36 18 36 12 38 12 38 10 32 10 32 12 34 12 34 18"></polygon><path d="M42,12h.382l1.723,3.447a1.042,1.042,0,0,0,1.79,0L47.618,12H48v6h2V11a1,1,0,0,0-1-1H47a1,1,0,0,0-.9.553L45,12.764l-1.1-2.211A1,1,0,0,0,43,10H41a1,1,0,0,0-1,1v7h2Z"></path><path d="M53,18h4V16H54V10H52v7A1,1,0,0,0,53,18Z"></path><rect x="11" y="44" width="14" height="2"></rect>
    <rect x="27" y="44" width="12" height="2"></rect><rect x="11" y="48" width="10" height="2"></rect><rect x="23" y="48" width="4" height="2"></rect>
    <rect x="29" y="48" width="12" height="2"></rect><path d="M16.293,26.293l-6,6a1,1,0,0,0,0,1.414l6,6a1,1,0,0,0,1.414,0l3-3a1,1,0,0,0,0-1.414L18.414,33l2.293-2.293a1,1,0,0,0,0-1.414l-3-3A1,1,0,0,0,16.293,26.293Zm0,6a1,1,0,0,0,0,1.414L18.586,36,17,37.586,12.414,33,17,28.414,18.586,30Z"></path>
    <path d="M35.293,30.707,37.586,33l-2.293,2.293a1,1,0,0,0,0,1.414l3,3a1,1,0,0,0,1.414,0l6-6a1,1,0,0,0,0-1.414l-6-6a1,1,0,0,0-1.414,0l-3,3A1,1,0,0,0,35.293,30.707ZM39,28.414,43.586,33,39,37.586,37.414,36l2.293-2.293a1,1,0,0,0,0-1.414L37.414,30Z"></path>
    <path d="M20.137,41.505A1,1,0,0,0,21,42h5a1,1,0,0,0,.871-.51l9-16A1,1,0,0,0,35,24H30a1,1,0,0,0-.871.51l-9,16A1,1,0,0,0,20.137,41.505ZM30.585,26h2.7L25.415,40h-2.7Z"></path>
  </g>
</svg>
